<mxfile host="65bd71144e">
    <diagram id="AqjsPrtMuM5N9qTIHyTN" name="Page-1">
        <mxGraphModel dx="1290" dy="1149" grid="0" gridSize="10" guides="1" tooltips="1" connect="1" arrows="1" fold="1" page="0" pageScale="1" pageWidth="1169" pageHeight="827" math="0" shadow="1">
            <root>
                <mxCell id="0"/>
                <mxCell id="1" parent="0"/>
                <mxCell id="2" value="&lt;font style=&quot;font-size: 14px&quot;&gt;Applications&lt;/font&gt;" style="rounded=1;whiteSpace=wrap;html=1;sketch=1;" parent="1" vertex="1">
                    <mxGeometry x="50" y="85" width="162" height="46" as="geometry"/>
                </mxCell>
                <mxCell id="3" value="&lt;font style=&quot;font-size: 14px&quot;&gt;OS Kernel&lt;/font&gt;" style="rounded=1;whiteSpace=wrap;html=1;sketch=1;" parent="1" vertex="1">
                    <mxGeometry x="50" y="143" width="162" height="46" as="geometry"/>
                </mxCell>
                <mxCell id="4" value="&lt;font style=&quot;font-size: 14px&quot;&gt;Hardware&lt;/font&gt;" style="rounded=1;whiteSpace=wrap;html=1;sketch=1;" parent="1" vertex="1">
                    <mxGeometry x="50" y="201" width="162" height="46" as="geometry"/>
                </mxCell>
                <mxCell id="5" value="&lt;font style=&quot;font-size: 24px&quot;&gt;Docker&lt;/font&gt;" style="text;html=1;align=center;verticalAlign=middle;resizable=0;points=[];autosize=1;strokeColor=none;fillColor=none;fontSize=14;rounded=1;sketch=1;" parent="1" vertex="1">
                    <mxGeometry x="88" y="39" width="86" height="25" as="geometry"/>
                </mxCell>
                <mxCell id="7" value="" style="rounded=1;whiteSpace=wrap;html=1;fontSize=24;fillColor=#60a917;fontColor=#ffffff;strokeColor=#2D7600;gradientColor=none;glass=0;shadow=0;sketch=1;absoluteArcSize=0;" parent="1" vertex="1">
                    <mxGeometry x="32.5" y="79.5" width="197" height="58.5" as="geometry"/>
                </mxCell>
                <mxCell id="8" value="&lt;font style=&quot;font-size: 14px&quot;&gt;Applications&lt;/font&gt;" style="rounded=1;whiteSpace=wrap;html=1;sketch=1;" parent="1" vertex="1">
                    <mxGeometry x="280" y="88" width="162" height="46" as="geometry"/>
                </mxCell>
                <mxCell id="9" value="&lt;font style=&quot;font-size: 14px&quot;&gt;OS Kernel&lt;/font&gt;" style="rounded=1;whiteSpace=wrap;html=1;sketch=1;" parent="1" vertex="1">
                    <mxGeometry x="282" y="148" width="162" height="46" as="geometry"/>
                </mxCell>
                <mxCell id="10" value="&lt;font style=&quot;font-size: 14px&quot;&gt;Hardware&lt;/font&gt;" style="rounded=1;whiteSpace=wrap;html=1;sketch=1;" parent="1" vertex="1">
                    <mxGeometry x="282" y="208" width="162" height="46" as="geometry"/>
                </mxCell>
                <mxCell id="11" value="&lt;font style=&quot;font-size: 24px&quot;&gt;Virtual Machine&lt;/font&gt;" style="text;html=1;align=center;verticalAlign=middle;resizable=0;points=[];autosize=1;strokeColor=none;fillColor=none;fontSize=14;rounded=1;sketch=1;" parent="1" vertex="1">
                    <mxGeometry x="271.5" y="43" width="175" height="25" as="geometry"/>
                </mxCell>
                <mxCell id="13" value="" style="rounded=1;whiteSpace=wrap;html=1;fontSize=24;fillColor=#60a917;fontColor=#ffffff;strokeColor=#2D7600;gradientColor=none;glass=0;shadow=0;sketch=1;absoluteArcSize=0;" parent="1" vertex="1">
                    <mxGeometry x="260" y="79.5" width="197" height="121.5" as="geometry"/>
                </mxCell>
                <mxCell id="14" value="" style="rounded=1;whiteSpace=wrap;html=1;fillColor=none;strokeColor=#969696;" parent="1" vertex="1">
                    <mxGeometry x="12" y="20" width="472" height="257" as="geometry"/>
                </mxCell>
                <mxCell id="15" value="&lt;font style=&quot;font-size: 16px&quot;&gt;&lt;br&gt;&lt;font&gt;Container&lt;/font&gt;&lt;/font&gt;" style="rounded=1;whiteSpace=wrap;html=1;strokeColor=#969696;fillColor=none;" parent="1" vertex="1">
                    <mxGeometry x="704" y="545.5" width="142" height="125" as="geometry"/>
                </mxCell>
                <mxCell id="17" value="" style="shape=flexArrow;endArrow=classic;html=1;" parent="1" edge="1">
                    <mxGeometry width="50" height="50" relative="1" as="geometry">
                        <mxPoint x="768.5" y="450.5" as="sourcePoint"/>
                        <mxPoint x="768.5" y="523.5" as="targetPoint"/>
                    </mxGeometry>
                </mxCell>
                <mxCell id="18" value="&lt;font style=&quot;font-size: 16px&quot;&gt;Port 5000&lt;/font&gt;" style="rounded=1;whiteSpace=wrap;html=1;strokeColor=#006EAF;fillColor=#1ba1e2;sketch=1;fontColor=#ffffff;" parent="1" vertex="1">
                    <mxGeometry x="704" y="396.5" width="132" height="41" as="geometry"/>
                </mxCell>
                <mxCell id="28" value="Port 5000" style="rounded=1;whiteSpace=wrap;html=1;fontSize=16;strokeColor=#006EAF;fillColor=#1ba1e2;fontColor=#ffffff;sketch=1;shadow=0;glass=0;" parent="1" vertex="1">
                    <mxGeometry x="716" y="536.5" width="120" height="30" as="geometry"/>
                </mxCell>
                <mxCell id="30" value="&lt;font style=&quot;font-size: 16px&quot;&gt;&lt;br&gt;&lt;font&gt;Container&lt;/font&gt;&lt;/font&gt;" style="rounded=1;whiteSpace=wrap;html=1;strokeColor=#969696;fillColor=none;" parent="1" vertex="1">
                    <mxGeometry x="876" y="545.5" width="142" height="125" as="geometry"/>
                </mxCell>
                <mxCell id="31" value="" style="shape=flexArrow;endArrow=classic;html=1;" parent="1" edge="1">
                    <mxGeometry width="50" height="50" relative="1" as="geometry">
                        <mxPoint x="940.5" y="450.5" as="sourcePoint"/>
                        <mxPoint x="940.5" y="523.5" as="targetPoint"/>
                    </mxGeometry>
                </mxCell>
                <mxCell id="32" value="&lt;font style=&quot;font-size: 16px&quot;&gt;Port 3000&lt;/font&gt;" style="rounded=1;whiteSpace=wrap;html=1;strokeColor=#006EAF;fillColor=#1ba1e2;fontColor=#ffffff;sketch=1;" parent="1" vertex="1">
                    <mxGeometry x="876" y="396.5" width="132" height="41" as="geometry"/>
                </mxCell>
                <mxCell id="33" value="Port 3000" style="rounded=1;whiteSpace=wrap;html=1;fontSize=16;strokeColor=#006EAF;fillColor=#1ba1e2;fontColor=#ffffff;sketch=1;" parent="1" vertex="1">
                    <mxGeometry x="888" y="536.5" width="120" height="30" as="geometry"/>
                </mxCell>
                <mxCell id="34" value="&lt;font style=&quot;font-size: 16px&quot;&gt;&lt;br&gt;&lt;font&gt;Container&lt;/font&gt;&lt;/font&gt;" style="rounded=1;whiteSpace=wrap;html=1;strokeColor=#969696;fillColor=none;" parent="1" vertex="1">
                    <mxGeometry x="1038" y="545.5" width="142" height="125" as="geometry"/>
                </mxCell>
                <mxCell id="35" value="" style="shape=flexArrow;endArrow=classic;html=1;" parent="1" edge="1">
                    <mxGeometry width="50" height="50" relative="1" as="geometry">
                        <mxPoint x="1102.5" y="450.5" as="sourcePoint"/>
                        <mxPoint x="1102.5" y="523.5" as="targetPoint"/>
                    </mxGeometry>
                </mxCell>
                <mxCell id="36" value="&lt;font style=&quot;font-size: 16px&quot;&gt;Port 3001&lt;/font&gt;" style="rounded=1;whiteSpace=wrap;html=1;strokeColor=#006EAF;fillColor=#1ba1e2;sketch=1;fontColor=#ffffff;" parent="1" vertex="1">
                    <mxGeometry x="1038" y="396.5" width="132" height="41" as="geometry"/>
                </mxCell>
                <mxCell id="37" value="Port 3000" style="rounded=1;whiteSpace=wrap;html=1;fontSize=16;strokeColor=#006EAF;fillColor=#1ba1e2;fontColor=#ffffff;sketch=1;" parent="1" vertex="1">
                    <mxGeometry x="1050" y="536.5" width="120" height="30" as="geometry"/>
                </mxCell>
                <mxCell id="41" value="&lt;font style=&quot;font-size: 14px&quot;&gt;We can run multiple containers, but a single port on the computer&lt;br&gt;can only map to one container.&amp;nbsp;&lt;/font&gt;" style="text;html=1;resizable=0;autosize=1;align=center;verticalAlign=middle;points=[];fillColor=none;strokeColor=none;rounded=0;shadow=0;glass=0;sketch=1;fontSize=16;" parent="1" vertex="1">
                    <mxGeometry x="736" y="683.5" width="414" height="44" as="geometry"/>
                </mxCell>
                <mxCell id="42" value="" style="rounded=1;whiteSpace=wrap;html=1;shadow=0;glass=0;sketch=1;fontSize=14;strokeColor=#969696;fillColor=none;" parent="1" vertex="1">
                    <mxGeometry x="677" y="356" width="530" height="401" as="geometry"/>
                </mxCell>
                <mxCell id="43" value="&lt;b&gt;&lt;font style=&quot;font-size: 14px&quot;&gt;Hardware&lt;/font&gt;&lt;/b&gt;" style="rounded=1;whiteSpace=wrap;html=1;" vertex="1" parent="1">
                    <mxGeometry x="322.5" y="616" width="200" height="60" as="geometry"/>
                </mxCell>
                <mxCell id="44" value="&lt;b&gt;&lt;font style=&quot;font-size: 14px&quot;&gt;Host OS&lt;/font&gt;&lt;/b&gt;" style="rounded=1;whiteSpace=wrap;html=1;" vertex="1" parent="1">
                    <mxGeometry x="322.5" y="540" width="200" height="60" as="geometry"/>
                </mxCell>
                <mxCell id="45" value="docker runtime engine" style="rounded=1;whiteSpace=wrap;html=1;" vertex="1" parent="1">
                    <mxGeometry x="322.5" y="493" width="200" height="32" as="geometry"/>
                </mxCell>
                <mxCell id="46" value="JavaScript" style="rounded=1;whiteSpace=wrap;html=1;horizontal=0;fillColor=#1ba1e2;fontColor=#ffffff;strokeColor=#006EAF;sketch=1;" vertex="1" parent="1">
                    <mxGeometry x="327.5" y="376" width="40" height="100" as="geometry"/>
                </mxCell>
                <mxCell id="47" value="DB" style="rounded=1;whiteSpace=wrap;html=1;horizontal=0;fillColor=#1ba1e2;fontColor=#ffffff;strokeColor=#006EAF;sketch=1;" vertex="1" parent="1">
                    <mxGeometry x="382.5" y="376" width="40" height="100" as="geometry"/>
                </mxCell>
                <mxCell id="48" value="Python" style="rounded=1;whiteSpace=wrap;html=1;horizontal=0;sketch=1;fillColor=#1ba1e2;fontColor=#ffffff;strokeColor=#006EAF;" vertex="1" parent="1">
                    <mxGeometry x="434.5" y="376" width="40" height="99" as="geometry"/>
                </mxCell>
                <mxCell id="53" value="&lt;font size=&quot;3&quot;&gt;&lt;b&gt;Host OS&lt;/b&gt;&lt;/font&gt;" style="rounded=1;whiteSpace=wrap;html=1;shadow=1;sketch=1;fillColor=none;" vertex="1" parent="1">
                    <mxGeometry x="38" y="679.5" width="220" height="60" as="geometry"/>
                </mxCell>
                <mxCell id="54" value="&lt;font style=&quot;font-size: 16px&quot;&gt;&lt;b&gt;Hypervisor&lt;/b&gt;&lt;/font&gt;" style="rounded=1;whiteSpace=wrap;html=1;shadow=1;sketch=1;fillColor=none;" vertex="1" parent="1">
                    <mxGeometry x="39" y="602.5" width="220" height="60" as="geometry"/>
                </mxCell>
                <mxCell id="55" value="" style="rounded=1;whiteSpace=wrap;html=1;shadow=1;sketch=1;fillColor=none;" vertex="1" parent="1">
                    <mxGeometry x="38" y="379.5" width="60" height="210" as="geometry"/>
                </mxCell>
                <mxCell id="58" value="os" style="rounded=0;whiteSpace=wrap;html=1;shadow=1;sketch=1;fontSize=16;fillColor=#1ba1e2;fontColor=#ffffff;strokeColor=#006EAF;" vertex="1" parent="1">
                    <mxGeometry x="38" y="539.5" width="60" height="50" as="geometry"/>
                </mxCell>
                <mxCell id="59" value="libs" style="rounded=0;whiteSpace=wrap;html=1;shadow=1;sketch=1;fontSize=16;fillColor=#1ba1e2;fontColor=#ffffff;strokeColor=#006EAF;" vertex="1" parent="1">
                    <mxGeometry x="38" y="489.5" width="60" height="50" as="geometry"/>
                </mxCell>
                <mxCell id="60" value="app" style="rounded=0;whiteSpace=wrap;html=1;shadow=1;sketch=1;fontSize=16;fillColor=#1ba1e2;fontColor=#ffffff;strokeColor=#006EAF;" vertex="1" parent="1">
                    <mxGeometry x="39" y="379.5" width="60" height="110" as="geometry"/>
                </mxCell>
                <mxCell id="70" value="os" style="rounded=0;whiteSpace=wrap;html=1;shadow=1;sketch=1;fontSize=16;fillColor=#1ba1e2;fontColor=#ffffff;strokeColor=#006EAF;" vertex="1" parent="1">
                    <mxGeometry x="118.5" y="539.5" width="60" height="50" as="geometry"/>
                </mxCell>
                <mxCell id="71" value="libs" style="rounded=0;whiteSpace=wrap;html=1;shadow=1;sketch=1;fontSize=16;fillColor=#1ba1e2;fontColor=#ffffff;strokeColor=#006EAF;" vertex="1" parent="1">
                    <mxGeometry x="118.5" y="489.5" width="60" height="50" as="geometry"/>
                </mxCell>
                <mxCell id="72" value="app" style="rounded=0;whiteSpace=wrap;html=1;shadow=1;sketch=1;fontSize=16;fillColor=#1ba1e2;fontColor=#ffffff;strokeColor=#006EAF;" vertex="1" parent="1">
                    <mxGeometry x="119.5" y="379.5" width="60" height="110" as="geometry"/>
                </mxCell>
                <mxCell id="73" value="os" style="rounded=0;whiteSpace=wrap;html=1;shadow=1;sketch=1;fontSize=16;fillColor=#1ba1e2;fontColor=#ffffff;strokeColor=#006EAF;" vertex="1" parent="1">
                    <mxGeometry x="197" y="539.5" width="60" height="50" as="geometry"/>
                </mxCell>
                <mxCell id="74" value="libs" style="rounded=0;whiteSpace=wrap;html=1;shadow=1;sketch=1;fontSize=16;fillColor=#1ba1e2;fontColor=#ffffff;strokeColor=#006EAF;" vertex="1" parent="1">
                    <mxGeometry x="197" y="489.5" width="60" height="50" as="geometry"/>
                </mxCell>
                <mxCell id="75" value="app" style="rounded=0;whiteSpace=wrap;html=1;shadow=1;sketch=1;fontSize=16;fillColor=#1ba1e2;fontColor=#ffffff;strokeColor=#006EAF;" vertex="1" parent="1">
                    <mxGeometry x="198" y="379.5" width="60" height="110" as="geometry"/>
                </mxCell>
                <mxCell id="79" value="" style="rounded=0;whiteSpace=wrap;html=1;shadow=1;sketch=1;fontSize=16;strokeColor=#B8B8B8;fillColor=none;" vertex="1" parent="1">
                    <mxGeometry x="18" y="359.5" width="260" height="483" as="geometry"/>
                </mxCell>
                <mxCell id="80" value="VMs" style="text;html=1;resizable=0;autosize=1;align=center;verticalAlign=middle;points=[];fillColor=none;strokeColor=none;rounded=0;shadow=1;sketch=1;fontSize=16;" vertex="1" parent="1">
                    <mxGeometry x="12" y="330" width="50" height="20" as="geometry"/>
                </mxCell>
                <mxCell id="82" value="&lt;font size=&quot;3&quot;&gt;&lt;b&gt;Hardware&lt;/b&gt;&lt;/font&gt;" style="rounded=1;whiteSpace=wrap;html=1;shadow=1;sketch=1;fillColor=none;" vertex="1" parent="1">
                    <mxGeometry x="39.5" y="759.5" width="220" height="60" as="geometry"/>
                </mxCell>
                <mxCell id="83" value="" style="rounded=0;whiteSpace=wrap;html=1;shadow=1;sketch=1;fontSize=16;strokeColor=#B8B8B8;fillColor=none;" vertex="1" parent="1">
                    <mxGeometry x="322.5" y="729" width="60" height="100" as="geometry"/>
                </mxCell>
                <mxCell id="87" value="" style="line;strokeWidth=2;html=1;rounded=1;shadow=1;sketch=1;fontSize=16;fillColor=none;" vertex="1" parent="1">
                    <mxGeometry x="332.5" y="749" width="28" height="10" as="geometry"/>
                </mxCell>
                <mxCell id="88" value="" style="line;strokeWidth=2;html=1;rounded=1;shadow=1;sketch=1;fontSize=16;fillColor=none;" vertex="1" parent="1">
                    <mxGeometry x="332.5" y="759" width="28" height="40" as="geometry"/>
                </mxCell>
                <mxCell id="89" value="" style="line;strokeWidth=2;html=1;rounded=1;shadow=1;sketch=1;fontSize=16;fillColor=none;" vertex="1" parent="1">
                    <mxGeometry x="332.5" y="759" width="40" height="10" as="geometry"/>
                </mxCell>
                <mxCell id="90" value="" style="line;strokeWidth=2;html=1;rounded=1;shadow=1;sketch=1;fontSize=16;fillColor=none;" vertex="1" parent="1">
                    <mxGeometry x="332.5" y="769" width="30" height="10" as="geometry"/>
                </mxCell>
                <mxCell id="91" value="" style="line;strokeWidth=2;html=1;rounded=1;shadow=1;sketch=1;fontSize=16;fillColor=none;" vertex="1" parent="1">
                    <mxGeometry x="331.5" y="779" width="30" height="10" as="geometry"/>
                </mxCell>
                <mxCell id="92" value="" style="rounded=0;whiteSpace=wrap;html=1;shadow=1;sketch=1;fontSize=16;strokeColor=#B8B8B8;fillColor=none;" vertex="1" parent="1">
                    <mxGeometry x="308" y="356" width="234.5" height="490" as="geometry"/>
                </mxCell>
                <mxCell id="94" value="&lt;font style=&quot;font-size: 12px&quot;&gt;Dockerfile&lt;/font&gt;" style="text;html=1;resizable=0;autosize=1;align=center;verticalAlign=middle;points=[];fillColor=none;strokeColor=none;rounded=0;shadow=1;sketch=1;fontSize=16;" vertex="1" parent="1">
                    <mxGeometry x="317.5" y="692.5" width="70" height="30" as="geometry"/>
                </mxCell>
                <mxCell id="96" value="&lt;font style=&quot;font-size: 12px&quot;&gt;Image&lt;/font&gt;" style="text;html=1;resizable=0;autosize=1;align=center;verticalAlign=middle;points=[];fillColor=none;strokeColor=none;rounded=0;shadow=1;sketch=1;fontSize=16;" vertex="1" parent="1">
                    <mxGeometry x="404.5" y="696" width="50" height="30" as="geometry"/>
                </mxCell>
                <mxCell id="102" value="" style="shape=hexagon;perimeter=hexagonPerimeter2;whiteSpace=wrap;html=1;fixedSize=1;rounded=1;shadow=1;sketch=1;fontSize=12;strokeColor=#B8B8B8;fillColor=none;rotation=90;" vertex="1" parent="1">
                    <mxGeometry x="384.5" y="756" width="90" height="43" as="geometry"/>
                </mxCell>
                <mxCell id="104" value="" style="rounded=0;whiteSpace=wrap;html=1;shadow=1;sketch=1;fontSize=12;strokeColor=#B8B8B8;fillColor=none;" vertex="1" parent="1">
                    <mxGeometry x="472.5" y="735.5" width="40" height="87" as="geometry"/>
                </mxCell>
                <mxCell id="105" value="" style="line;strokeWidth=2;html=1;rounded=1;shadow=1;sketch=1;fontSize=12;fillColor=none;" vertex="1" parent="1">
                    <mxGeometry x="472.5" y="752.5" width="40" height="10" as="geometry"/>
                </mxCell>
                <mxCell id="106" value="" style="line;strokeWidth=2;html=1;rounded=1;shadow=1;sketch=1;fontSize=12;fillColor=none;" vertex="1" parent="1">
                    <mxGeometry x="472.5" y="774" width="40" height="10" as="geometry"/>
                </mxCell>
                <mxCell id="107" value="" style="line;strokeWidth=2;html=1;rounded=1;shadow=1;sketch=1;fontSize=12;fillColor=none;" vertex="1" parent="1">
                    <mxGeometry x="472.5" y="792.5" width="40" height="10" as="geometry"/>
                </mxCell>
                <mxCell id="108" value="&lt;font style=&quot;font-size: 12px&quot;&gt;Container&lt;/font&gt;" style="text;html=1;resizable=0;autosize=1;align=center;verticalAlign=middle;points=[];fillColor=none;strokeColor=none;rounded=0;shadow=1;sketch=1;fontSize=16;" vertex="1" parent="1">
                    <mxGeometry x="457.5" y="699" width="70" height="30" as="geometry"/>
                </mxCell>
                <mxCell id="110" value="Docker container" style="text;html=1;resizable=0;autosize=1;align=center;verticalAlign=middle;points=[];fillColor=none;strokeColor=none;rounded=0;shadow=1;sketch=1;fontSize=16;" vertex="1" parent="1">
                    <mxGeometry x="294.5" y="330" width="140" height="20" as="geometry"/>
                </mxCell>
            </root>
        </mxGraphModel>
    </diagram>
</mxfile>